<svg width="360" height="360" viewBox="0 0 360 360" xmlns="http://www.w3.org/2000/svg">
  <rect width="360" height="360" fill="transparent"/>
  <g fill-opacity="0.28" stroke-opacity="0.28" stroke="#0F172A" stroke-width="2">
    <path fill="#FBBF24" d="M36 38H116V76C126 76 134 84 134 94C134 104 126 112 116 112V150H36Z"/>
    <path fill="#60A5FA" d="M128 38H208V78C198 78 190 86 190 96C190 106 198 114 208 114V150H128Z"/>
    <path fill="#F472B6" d="M220 38H300V150H220V112C210 112 202 104 202 94C202 84 210 76 220 76Z"/>
    <path fill="#34D399" d="M70 176H182V256H144C144 266 136 274 126 274C116 274 108 266 108 256H70Z"/>
    <path fill="#A78BFA" d="M194 176H306V256H268C268 266 260 274 250 274C240 274 232 266 232 256H194Z"/>
  </g>
</svg>
